<svg width="22" height="20" viewBox="0 0 22 20" fill="none" xmlns="http://www.w3.org/2000/svg">
<g clip-path="url(#clip0_86_5502)">
<path d="M21.8104 10.0363C21.8104 4.55051 17.1162 0.10338 11.3256 0.10338C5.53502 0.10338 0.84082 4.55051 0.84082 10.0363C0.84082 14.9942 4.67496 19.1035 9.68736 19.8486V12.9076H7.02521V10.0363H9.68736V7.84799C9.68736 5.35854 11.2527 3.98344 13.6476 3.98344C14.7947 3.98344 15.9946 4.17745 15.9946 4.17745V6.62189H14.6725C13.37 6.62189 12.9639 7.38756 12.9639 8.17308V10.0363H15.8718L15.4069 12.9076H12.9639V19.8486C17.9763 19.1035 21.8104 14.9942 21.8104 10.0363Z" fill="white"/>
</g>
<defs>
<clipPath id="clip0_86_5502">
<rect width="20.9696" height="19.8659" fill="white" transform="translate(0.84082 0.103516)"/>
</clipPath>
</defs>
</svg>
