<svg width="22" height="22" viewBox="0 0 22 22" fill="none" xmlns="http://www.w3.org/2000/svg">
<path d="M10.9308 0C4.90599 0 0.0205078 4.88726 0.0205078 10.9163C0.0205078 15.7394 3.14663 19.8312 7.48161 21.2747C8.02687 21.3757 8.22706 21.0379 8.22706 20.7495C8.22706 20.4892 8.21694 19.6293 8.21224 18.7172C5.17699 19.3775 4.53652 17.4292 4.53652 17.4292C4.04022 16.1674 3.32513 15.8319 3.32513 15.8319C2.33524 15.1544 3.39975 15.1683 3.39975 15.1683C4.49533 15.2453 5.07221 16.2932 5.07221 16.2932C6.04529 17.9621 7.62452 17.4796 8.24711 17.2007C8.34503 16.4951 8.62778 16.0136 8.9398 15.741C6.51648 15.4649 3.96904 14.5289 3.96904 10.3461C3.96904 9.15431 4.39524 8.18051 5.09316 7.41604C4.97988 7.14109 4.60644 6.03081 5.19886 4.52717C5.19886 4.52717 6.11503 4.23379 8.19996 5.64613C9.07024 5.40426 10.0036 5.28297 10.9308 5.27881C11.858 5.28297 12.792 5.40426 13.6639 5.64613C15.7463 4.23379 16.6612 4.52717 16.6612 4.52717C17.2551 6.03081 16.8815 7.14109 16.7682 7.41604C17.4678 8.18051 17.8911 9.15431 17.8911 10.3461C17.8911 14.5389 15.3387 15.4621 12.9093 15.7323C13.3006 16.0711 13.6493 16.7354 13.6493 17.7538C13.6493 19.2145 13.6367 20.39 13.6367 20.7495C13.6367 21.04 13.833 21.3804 14.3861 21.2732C18.7187 19.8282 21.8409 15.7377 21.8409 10.9163C21.8409 4.88726 16.9561 0 10.9308 0ZM4.10676 15.5504C4.08273 15.6047 3.99745 15.6209 3.91976 15.5837C3.84063 15.5481 3.79619 15.4742 3.82184 15.4198C3.84533 15.3639 3.93079 15.3483 4.00974 15.3858C4.08905 15.4214 4.13422 15.496 4.10676 15.5504ZM4.64342 16.0296C4.59139 16.0778 4.48967 16.0554 4.42066 15.9791C4.34929 15.903 4.33592 15.8013 4.38868 15.7523C4.44234 15.704 4.54098 15.7266 4.61253 15.8027C4.68389 15.8797 4.6978 15.9808 4.64342 16.0296ZM5.01159 16.6426C4.94475 16.689 4.83544 16.6455 4.76787 16.5484C4.70102 16.4513 4.70102 16.3349 4.76932 16.2883C4.83707 16.2416 4.94475 16.2836 5.01322 16.3799C5.07989 16.4786 5.07989 16.595 5.01159 16.6426ZM5.63425 17.3526C5.57445 17.4185 5.44708 17.4008 5.35385 17.3108C5.25846 17.2228 5.2319 17.0978 5.29188 17.0319C5.35241 16.9657 5.4805 16.9843 5.57445 17.0736C5.66912 17.1615 5.69803 17.2873 5.63425 17.3526ZM6.43897 17.5922C6.4126 17.6777 6.28992 17.7166 6.16634 17.6803C6.04295 17.6428 5.96219 17.5427 5.98712 17.4563C6.01278 17.3702 6.13599 17.3298 6.26047 17.3686C6.38369 17.4059 6.46463 17.5053 6.43897 17.5922ZM7.35478 17.6939C7.35786 17.7839 7.25307 17.8586 7.12335 17.8602C6.9929 17.8631 6.88739 17.7902 6.88595 17.7017C6.88595 17.6107 6.98839 17.5368 7.11883 17.5346C7.24855 17.5321 7.35478 17.6044 7.35478 17.6939ZM8.25447 17.6594C8.27 17.7472 8.17985 17.8374 8.05103 17.8615C7.92438 17.8846 7.80713 17.8304 7.79105 17.7433C7.77533 17.6532 7.86711 17.563 7.99358 17.5397C8.12258 17.5173 8.23802 17.5701 8.25447 17.6594Z" fill="white"/>
</svg>
