<svg width="22" height="21" viewBox="0 0 22 21" fill="none" xmlns="http://www.w3.org/2000/svg">
<g id="&#240;&#159;&#166;&#134; icon &#34;thumb down&#34;">
<path id="Vector" d="M0 0V12.0113H3.00281V0H0ZM6.00563 0V12.0113C6.84641 12.0113 7.59712 12.2815 8.16765 12.852C8.73819 13.4226 11.6209 19.218 12.0113 19.9987C12.4016 20.7795 13.1823 21.1698 13.9931 20.9296C14.7738 20.6894 15.1942 19.8486 14.924 19.0378C14.6838 18.2571 13.5127 14.2634 13.5127 13.5127C13.5127 12.762 14.1733 12.0113 15.0141 12.0113H19.5183C20.3591 12.0113 21.0197 11.3506 21.0197 10.5098C21.0197 9.66906 17.9268 0.930872 17.9268 0.930872C17.6866 0.390366 17.1461 0 16.5155 0L6.00563 0Z" fill="#3A42BF"/>
</g>
</svg>
