<svg width="21" height="21" viewBox="0 0 21 21" fill="none" xmlns="http://www.w3.org/2000/svg">
<g id="&#240;&#159;&#166;&#134; icon &#34;thumb up&#34;">
<path id="Vector" d="M13.4049 0.00797656C12.8351 0.0679538 12.2953 0.457806 11.9954 1.02759C11.6056 1.80729 8.72668 7.59509 8.1569 8.16488C7.58712 8.73466 6.8374 9.00456 5.99772 9.00456V21H16.4937C17.1235 21 17.6633 20.6101 17.9032 20.0704C17.9032 20.0704 20.992 11.3437 20.992 10.504C20.992 9.66431 20.3323 9.00456 19.4926 9.00456H14.9943C14.1546 9.00456 13.4949 8.25484 13.4949 7.50513C13.4949 6.75541 14.6644 2.76693 14.9043 1.98722C15.1442 1.20752 14.7544 0.36784 13.9747 0.0979424C13.7648 0.0379652 13.6148 -0.022012 13.4049 0.00797656ZM0 9.00456V21H2.99886V9.00456H0Z" fill="#3A42BF"/>
</g>
</svg>
