<svg width="20" height="20" viewBox="0 0 20 20" fill="none" xmlns="http://www.w3.org/2000/svg">
<path d="M5.8192 0.172985C4.76232 0.222848 4.04059 0.39151 3.40964 0.639438C2.75664 0.893921 2.20317 1.23542 1.65248 1.78809C1.10179 2.34076 0.762676 2.89463 0.509979 3.54861C0.265427 4.18095 0.099744 4.90328 0.0530587 5.96074C0.00637327 7.01821 -0.00395712 7.35812 0.00120807 10.0555C0.00637326 12.7529 0.0182929 13.091 0.0695475 14.1507C0.120007 15.2074 0.288075 15.9289 0.536004 16.56C0.790886 17.213 1.13199 17.7663 1.68486 18.3172C2.23774 18.8681 2.79121 19.2064 3.44679 19.4595C4.07853 19.7036 4.80106 19.8701 5.85834 19.9164C6.91561 19.9627 7.25592 19.9734 9.95255 19.9683C12.6492 19.9631 12.9887 19.9512 14.0481 19.9009C15.1076 19.8506 15.8254 19.6814 16.4567 19.4347C17.1097 19.1792 17.6634 18.8387 18.2139 18.2856C18.7644 17.7325 19.1033 17.1783 19.3558 16.5239C19.6005 15.8921 19.7668 15.1696 19.8127 14.1131C19.859 13.0529 19.8699 12.7144 19.8647 10.0174C19.8596 7.32037 19.8475 6.98225 19.7972 5.923C19.7469 4.86374 19.5787 4.14439 19.3309 3.51285C19.0757 2.85986 18.735 2.30699 18.1823 1.75571C17.6296 1.20443 17.0749 0.865712 16.4208 0.613811C15.7886 0.369261 15.0665 0.202585 14.0092 0.156893C12.9519 0.111201 12.6116 0.0994805 9.91401 0.104646C7.21638 0.109811 6.87866 0.121333 5.8192 0.172985ZM5.93522 18.1295C4.96675 18.0873 4.44089 17.9264 4.09045 17.7917C3.62638 17.6129 3.29581 17.3968 2.94656 17.0509C2.59731 16.7051 2.38276 16.3733 2.20158 15.9102C2.0655 15.5598 1.9016 15.0345 1.85631 14.0661C1.80704 13.0193 1.79671 12.705 1.79095 10.0531C1.78519 7.40122 1.79532 7.08734 1.84121 6.04021C1.88253 5.07253 2.04444 4.54608 2.17893 4.19585C2.35773 3.73118 2.57308 3.40121 2.91974 3.05216C3.2664 2.70312 3.59717 2.48817 4.06065 2.30699C4.41069 2.17031 4.93595 2.00781 5.90403 1.96172C6.95157 1.91205 7.26545 1.90212 9.91698 1.89636C12.5685 1.8906 12.8832 1.90053 13.9311 1.94662C14.8988 1.98874 15.4255 2.14905 15.7753 2.28434C16.2396 2.46314 16.57 2.67789 16.919 3.02514C17.268 3.3724 17.4832 3.70198 17.6644 4.16645C17.8013 4.51549 17.9638 5.04055 18.0094 6.00921C18.0593 7.05675 18.0706 7.37083 18.0754 10.0221C18.0802 12.6735 18.0708 12.9883 18.0249 14.0351C17.9826 15.0035 17.8221 15.5296 17.6872 15.8804C17.5084 16.3443 17.2929 16.6751 16.946 17.0239C16.5992 17.3728 16.2688 17.5877 15.8051 17.7689C15.4555 17.9054 14.9296 18.0683 13.9623 18.1144C12.9148 18.1636 12.6009 18.174 9.94837 18.1797C7.29585 18.1855 6.98296 18.1747 5.93542 18.1295M14.0328 4.72766C14.0332 4.96342 14.1035 5.19378 14.2349 5.38958C14.3662 5.58539 14.5526 5.73785 14.7706 5.82769C14.9886 5.91754 15.2283 5.94072 15.4594 5.89431C15.6906 5.8479 15.9028 5.73398 16.0692 5.56697C16.2356 5.39995 16.3487 5.18734 16.3943 4.95602C16.4399 4.7247 16.4158 4.48506 16.3252 4.26742C16.2345 4.04977 16.0814 3.8639 15.8851 3.7333C15.6888 3.6027 15.4582 3.53324 15.2224 3.53371C14.9064 3.53435 14.6035 3.66048 14.3804 3.88438C14.1573 4.10827 14.0323 4.4116 14.0328 4.72766ZM4.83285 10.0464C4.83841 12.8634 7.12619 15.1418 9.94261 15.1364C12.759 15.1311 15.0391 12.8435 15.0337 10.0265C15.0283 7.20952 12.74 4.93049 9.92314 4.93605C7.10633 4.94162 4.82748 7.22978 4.83285 10.0464ZM6.62199 10.0428C6.62069 9.38794 6.81362 8.7474 7.17637 8.20218C7.53912 7.65696 8.0554 7.23155 8.65992 6.97974C9.26444 6.72794 9.93006 6.66105 10.5726 6.78754C11.2151 6.91403 11.8057 7.22821 12.2697 7.69035C12.7337 8.15249 13.0502 8.74184 13.1792 9.38387C13.3083 10.0259 13.244 10.6918 12.9946 11.2973C12.7452 11.9028 12.3218 12.4208 11.7781 12.7857C11.2343 13.1506 10.5945 13.346 9.93963 13.3473C9.5048 13.3482 9.07405 13.2635 8.67197 13.0979C8.2699 12.9323 7.90438 12.6891 7.5963 12.3823C7.28822 12.0754 7.04361 11.7109 6.87643 11.3095C6.70926 10.908 6.6228 10.4776 6.62199 10.0428Z" fill="white"/>
</svg>
