<svg width="28" height="28" viewBox="0 0 28 28" fill="none" xmlns="http://www.w3.org/2000/svg">
<path fill-rule="evenodd" clip-rule="evenodd" d="M0 14.427C0 6.93057 6.07705 0.853516 13.5735 0.853516C21.0699 0.853516 27.147 6.93057 27.147 14.427C27.147 21.9234 21.0699 28.0005 13.5735 28.0005C6.07705 28.0005 0 21.9234 0 14.427ZM14.9308 6.96158C14.9308 6.21192 14.3231 5.60423 13.5735 5.60423C12.8238 5.60423 12.2161 6.21192 12.2161 6.96158V16.463C12.2161 17.2127 12.8238 17.8204 13.5735 17.8204C14.3231 17.8204 14.9308 17.2127 14.9308 16.463V6.96158ZM13.5735 20.5351C14.3231 20.5351 14.9308 21.1427 14.9308 21.8924C14.9308 22.6421 14.3231 23.2498 13.5735 23.2498C12.8238 23.2498 12.2161 22.6421 12.2161 21.8924C12.2161 21.1427 12.8238 20.5351 13.5735 20.5351Z" fill="#3A42BF"/>
</svg>
