<svg width="28" height="22" viewBox="0 0 28 22" fill="none" xmlns="http://www.w3.org/2000/svg">
<path d="M24.3431 5.30095C24.3591 5.53197 24.3591 5.76298 24.3591 5.99613C24.3591 13.1002 18.9613 21.2934 9.09137 21.2934V21.2892C6.17574 21.2934 3.32069 20.4567 0.866211 18.8789C1.29017 18.93 1.71625 18.9556 2.14339 18.9566C4.55961 18.9588 6.90677 18.1465 8.80767 16.6507C6.51151 16.607 4.49799 15.107 3.79458 12.9171C4.59893 13.0726 5.42771 13.0406 6.21718 12.8245C3.71383 12.3178 1.91282 10.114 1.91282 7.55471C1.91282 7.53129 1.91282 7.50894 1.91282 7.48658C2.65872 7.90284 3.49388 8.13386 4.34817 8.15941C1.99038 6.5806 1.2636 3.43789 2.68741 0.98078C5.41178 4.33961 9.43138 6.38152 13.7464 6.59764C13.3139 4.73032 13.9047 2.77357 15.2987 1.46092C17.46 -0.574607 20.859 -0.470276 22.8906 1.69407C24.0924 1.45666 25.2442 1.01485 26.2982 0.38886C25.8976 1.63338 25.0593 2.69054 23.9394 3.3623C25.003 3.23668 26.0421 2.95136 27.0207 2.51594C26.3003 3.59758 25.3929 4.53975 24.3431 5.30095Z" fill="white"/>
</svg>
